<?xml version="1.0" encoding="UTF-8" standalone="no"?>
<!DOCTYPE svg PUBLIC "-//W3C//DTD SVG 1.1//EN"
 "http://www.w3.org/Graphics/SVG/1.1/DTD/svg11.dtd">
<!-- Generated by graphviz version 15.0.0 (20260523.1842)
 -->
<!-- Title: G Pages: 1 -->
<svg width="1348pt" height="999pt"
 viewBox="0.00 0.00 1348.00 999.00" xmlns="http://www.w3.org/2000/svg" xmlns:xlink="http://www.w3.org/1999/xlink">
<g id="graph0" class="graph" transform="scale(1 1) rotate(0) translate(4 994.51)">
<title>G</title><style>.edge>path:hover{stroke-width:8}</style>
<polygon fill="white" stroke="none" points="-4,4 -4,-994.51 1343.95,-994.51 1343.95,4 -4,4"/>
<!-- atc_argparse_utils -->
<g id="node1" class="node">
<title>atc_argparse_utils</title><style>.edge>path:hover{stroke-width:8}</style>
<ellipse fill="#c24747" stroke="black" cx="54.27" cy="-166.63" rx="54.27" ry="22.63"/>
<text xml:space="preserve" text-anchor="middle" x="54.27" y="-169.13" font-family="Helvetica,sans-Serif" font-size="10.00" fill="#ffffff">atc.</text>
<text xml:space="preserve" text-anchor="middle" x="54.27" y="-157.13" font-family="Helvetica,sans-Serif" font-size="10.00" fill="#ffffff">argparse_utils</text>
</g>
<!-- atc_commands -->
<g id="node4" class="node">
<title>atc_commands</title><style>.edge>path:hover{stroke-width:8}</style>
<ellipse fill="#732626" stroke="black" cx="812.27" cy="-90" rx="48.41" ry="18"/>
<text xml:space="preserve" text-anchor="middle" x="812.27" y="-86.5" font-family="Helvetica,sans-Serif" font-size="10.00" fill="#ffffff">atc.commands</text>
</g>
<!-- atc_argparse_utils&#45;&gt;atc_commands -->
<g id="edge1" class="edge">
<title>atc_argparse_utils&#45;&gt;atc_commands</title><style>.edge>path:hover{stroke-width:8}</style>
<path fill="none" stroke="black" d="M94.5,-151.14C103.54,-148.37 113.15,-145.78 122.27,-144 351.96,-99.28 631.53,-91.93 752.14,-90.97"/>
<polygon fill="#c24747" stroke="black" points="752.17,-94.47 762.14,-90.9 752.12,-87.47 752.17,-94.47"/>
</g>
<!-- atc_atcoder -->
<g id="node2" class="node">
<title>atc_atcoder</title><style>.edge>path:hover{stroke-width:8}</style>
<ellipse fill="#ce3b3b" stroke="black" cx="308.27" cy="-324.51" rx="38.94" ry="18"/>
<text xml:space="preserve" text-anchor="middle" x="308.27" y="-321.01" font-family="Helvetica,sans-Serif" font-size="10.00" fill="#ffffff">atc.atcoder</text>
</g>
<!-- atc_contest -->
<g id="node7" class="node">
<title>atc_contest</title><style>.edge>path:hover{stroke-width:8}</style>
<ellipse fill="#993333" stroke="black" cx="426.27" cy="-166.63" rx="38.94" ry="18"/>
<text xml:space="preserve" text-anchor="middle" x="426.27" y="-163.13" font-family="Helvetica,sans-Serif" font-size="10.00" fill="#ffffff">atc.contest</text>
</g>
<!-- atc_atcoder&#45;&gt;atc_contest -->
<g id="edge2" class="edge">
<title>atc_atcoder&#45;&gt;atc_contest</title><style>.edge>path:hover{stroke-width:8}</style>
<path fill="none" stroke="black" d="M301.25,-306.35C293.92,-285.45 285.5,-249.88 301.27,-225.25 318.31,-198.63 351.12,-184.14 378.84,-176.34"/>
<polygon fill="#ce3b3b" stroke="black" points="379.68,-179.74 388.49,-173.87 377.94,-172.96 379.68,-179.74"/>
</g>
<!-- atc_metadata -->
<g id="node10" class="node">
<title>atc_metadata</title><style>.edge>path:hover{stroke-width:8}</style>
<ellipse fill="#b83d3d" stroke="black" cx="354.27" cy="-247.88" rx="43.9" ry="18"/>
<text xml:space="preserve" text-anchor="middle" x="354.27" y="-244.38" font-family="Helvetica,sans-Serif" font-size="10.00" fill="#ffffff">atc.metadata</text>
</g>
<!-- atc_atcoder&#45;&gt;atc_metadata -->
<g id="edge3" class="edge">
<title>atc_atcoder&#45;&gt;atc_metadata</title><style>.edge>path:hover{stroke-width:8}</style>
<path fill="none" stroke="black" d="M318.48,-306.95C324.22,-297.64 331.51,-285.81 338.01,-275.26"/>
<polygon fill="#ce3b3b" stroke="black" points="340.87,-277.29 343.14,-266.94 334.91,-273.62 340.87,-277.29"/>
</g>
<!-- atc_cli -->
<g id="node3" class="node">
<title>atc_cli</title><style>.edge>path:hover{stroke-width:8}</style>
<ellipse fill="#b34c4c" stroke="black" cx="812.27" cy="-18" rx="27" ry="18"/>
<text xml:space="preserve" text-anchor="middle" x="812.27" y="-14.5" font-family="Helvetica,sans-Serif" font-size="10.00" fill="#ffffff">atc.cli</text>
</g>
<!-- atc_commands&#45;&gt;atc_cli -->
<g id="edge4" class="edge">
<title>atc_commands&#45;&gt;atc_cli</title><style>.edge>path:hover{stroke-width:8}</style>
<path fill="none" stroke="black" d="M812.27,-71.7C812.27,-64.41 812.27,-55.73 812.27,-47.54"/>
<polygon fill="#732626" stroke="black" points="815.77,-47.62 812.27,-37.62 808.77,-47.62 815.77,-47.62"/>
</g>
<!-- atc_config -->
<g id="node5" class="node">
<title>atc_config</title><style>.edge>path:hover{stroke-width:8}</style>
<ellipse fill="#d92626" stroke="black" cx="426.27" cy="-324.51" rx="35.33" ry="18"/>
<text xml:space="preserve" text-anchor="middle" x="426.27" y="-321.01" font-family="Helvetica,sans-Serif" font-size="10.00" fill="#ffffff">atc.config</text>
</g>
<!-- atc_config&#45;&gt;atc_commands -->
<g id="edge5" class="edge">
<title>atc_config&#45;&gt;atc_commands</title><style>.edge>path:hover{stroke-width:8}</style>
<path fill="none" stroke="black" d="M462.04,-324.44C507.81,-323.63 586.7,-315.2 633.27,-270.51 675.63,-229.86 631.19,-186.9 671.27,-144 693.51,-120.2 727.5,-107.01 756.53,-99.74"/>
<polygon fill="#d92626" stroke="black" points="756.95,-103.24 765.91,-97.58 755.38,-96.42 756.95,-103.24"/>
</g>
<!-- atc_config&#45;&gt;atc_contest -->
<g id="edge6" class="edge">
<title>atc_config&#45;&gt;atc_contest</title><style>.edge>path:hover{stroke-width:8}</style>
<path fill="none" stroke="black" d="M426.27,-306.23C426.27,-279.66 426.27,-228.48 426.27,-196.3"/>
<polygon fill="#d92626" stroke="black" points="429.77,-196.5 426.27,-186.5 422.77,-196.5 429.77,-196.5"/>
</g>
<!-- atc_config&#45;&gt;atc_metadata -->
<g id="edge7" class="edge">
<title>atc_config&#45;&gt;atc_metadata</title><style>.edge>path:hover{stroke-width:8}</style>
<path fill="none" stroke="black" d="M411.35,-308.05C401.61,-297.95 388.68,-284.55 377.59,-273.06"/>
<polygon fill="#d92626" stroke="black" points="380.43,-270.96 370.97,-266.19 375.39,-275.82 380.43,-270.96"/>
</g>
<!-- atc_console -->
<g id="node6" class="node">
<title>atc_console</title><style>.edge>path:hover{stroke-width:8}</style>
<ellipse fill="#913030" stroke="black" cx="424.27" cy="-396.51" rx="39.84" ry="18"/>
<text xml:space="preserve" text-anchor="middle" x="424.27" y="-393.01" font-family="Helvetica,sans-Serif" font-size="10.00" fill="#ffffff">atc.console</text>
</g>
<!-- atc_console&#45;&gt;atc_config -->
<g id="edge8" class="edge">
<title>atc_console&#45;&gt;atc_config</title><style>.edge>path:hover{stroke-width:8}</style>
<path fill="none" stroke="black" d="M424.76,-378.21C424.97,-370.92 425.22,-362.24 425.46,-354.05"/>
<polygon fill="#913030" stroke="black" points="428.95,-354.22 425.74,-344.13 421.95,-354.02 428.95,-354.22"/>
</g>
<!-- atc_contest&#45;&gt;atc_commands -->
<g id="edge9" class="edge">
<title>atc_contest&#45;&gt;atc_commands</title><style>.edge>path:hover{stroke-width:8}</style>
<path fill="none" stroke="black" d="M461.89,-158.74C529.93,-145.59 678.73,-116.82 758.77,-101.34"/>
<polygon fill="#993333" stroke="black" points="759.43,-104.78 768.58,-99.45 758.1,-97.91 759.43,-104.78"/>
</g>
<!-- atc_doctor -->
<g id="node8" class="node">
<title>atc_doctor</title><style>.edge>path:hover{stroke-width:8}</style>
<ellipse fill="#b83d3d" stroke="black" cx="143.27" cy="-468.51" rx="35.78" ry="18"/>
<text xml:space="preserve" text-anchor="middle" x="143.27" y="-465.01" font-family="Helvetica,sans-Serif" font-size="10.00" fill="#ffffff">atc.doctor</text>
</g>
<!-- atc_doctor&#45;&gt;atc_commands -->
<g id="edge10" class="edge">
<title>atc_doctor&#45;&gt;atc_commands</title><style>.edge>path:hover{stroke-width:8}</style>
<path fill="none" stroke="black" d="M141.85,-450.03C139.81,-423.25 136.27,-370.43 136.27,-325.51 136.27,-325.51 136.27,-325.51 136.27,-246.88 136.27,-121.03 586.77,-96.77 752.24,-92.11"/>
<polygon fill="#b83d3d" stroke="black" points="752.24,-95.61 762.14,-91.84 752.05,-88.61 752.24,-95.61"/>
</g>
<!-- atc_manual -->
<g id="node9" class="node">
<title>atc_manual</title><style>.edge>path:hover{stroke-width:8}</style>
<ellipse fill="#c04040" stroke="black" cx="718.27" cy="-166.63" rx="38.49" ry="18"/>
<text xml:space="preserve" text-anchor="middle" x="718.27" y="-163.13" font-family="Helvetica,sans-Serif" font-size="10.00" fill="#ffffff">atc.manual</text>
</g>
<!-- atc_manual&#45;&gt;atc_commands -->
<g id="edge11" class="edge">
<title>atc_manual&#45;&gt;atc_commands</title><style>.edge>path:hover{stroke-width:8}</style>
<path fill="none" stroke="black" d="M737.29,-150.53C750.53,-140.01 768.43,-125.81 783.41,-113.91"/>
<polygon fill="#c04040" stroke="black" points="785.46,-116.75 791.12,-107.79 781.11,-111.27 785.46,-116.75"/>
</g>
<!-- atc_metadata&#45;&gt;atc_contest -->
<g id="edge12" class="edge">
<title>atc_metadata&#45;&gt;atc_contest</title><style>.edge>path:hover{stroke-width:8}</style>
<path fill="none" stroke="black" d="M369.19,-230.46C379.3,-219.34 392.83,-204.44 404.18,-191.95"/>
<polygon fill="#b83d3d" stroke="black" points="406.47,-194.63 410.6,-184.88 401.28,-189.93 406.47,-194.63"/>
</g>
<!-- atc_models -->
<g id="node11" class="node">
<title>atc_models</title><style>.edge>path:hover{stroke-width:8}</style>
<ellipse fill="#c24747" stroke="black" cx="1029.27" cy="-324.51" rx="38.49" ry="18"/>
<text xml:space="preserve" text-anchor="middle" x="1029.27" y="-321.01" font-family="Helvetica,sans-Serif" font-size="10.00" fill="#ffffff">atc.models</text>
</g>
<!-- atc_runner -->
<g id="node15" class="node">
<title>atc_runner</title><style>.edge>path:hover{stroke-width:8}</style>
<ellipse fill="#cc3333" stroke="black" cx="1029.27" cy="-247.88" rx="35.78" ry="18"/>
<text xml:space="preserve" text-anchor="middle" x="1029.27" y="-244.38" font-family="Helvetica,sans-Serif" font-size="10.00" fill="#ffffff">atc.runner</text>
</g>
<!-- atc_models&#45;&gt;atc_runner -->
<g id="edge13" class="edge">
<title>atc_models&#45;&gt;atc_runner</title><style>.edge>path:hover{stroke-width:8}</style>
<path fill="none" stroke="black" d="M1029.27,-306.2C1029.27,-297.78 1029.27,-287.44 1029.27,-277.87"/>
<polygon fill="#c24747" stroke="black" points="1032.77,-277.87 1029.27,-267.87 1025.77,-277.87 1032.77,-277.87"/>
</g>
<!-- atc_paths -->
<g id="node12" class="node">
<title>atc_paths</title><style>.edge>path:hover{stroke-width:8}</style>
<ellipse fill="#c24747" stroke="black" cx="488.27" cy="-247.88" rx="33.98" ry="18"/>
<text xml:space="preserve" text-anchor="middle" x="488.27" y="-244.38" font-family="Helvetica,sans-Serif" font-size="10.00" fill="#ffffff">atc.paths</text>
</g>
<!-- atc_paths&#45;&gt;atc_contest -->
<g id="edge14" class="edge">
<title>atc_paths&#45;&gt;atc_contest</title><style>.edge>path:hover{stroke-width:8}</style>
<path fill="none" stroke="black" d="M475.72,-230.84C467.21,-219.96 455.77,-205.34 446.04,-192.9"/>
<polygon fill="#c24747" stroke="black" points="448.86,-190.83 439.94,-185.11 443.35,-195.14 448.86,-190.83"/>
</g>
<!-- atc_problems -->
<g id="node13" class="node">
<title>atc_problems</title><style>.edge>path:hover{stroke-width:8}</style>
<ellipse fill="#c24747" stroke="black" cx="723.27" cy="-247.88" rx="43.45" ry="18"/>
<text xml:space="preserve" text-anchor="middle" x="723.27" y="-244.38" font-family="Helvetica,sans-Serif" font-size="10.00" fill="#ffffff">atc.problems</text>
</g>
<!-- atc_problems&#45;&gt;atc_manual -->
<g id="edge15" class="edge">
<title>atc_problems&#45;&gt;atc_manual</title><style>.edge>path:hover{stroke-width:8}</style>
<path fill="none" stroke="black" d="M722.19,-229.69C721.57,-219.99 720.79,-207.62 720.09,-196.48"/>
<polygon fill="#c24747" stroke="black" points="723.59,-196.33 719.47,-186.58 716.6,-196.78 723.59,-196.33"/>
</g>
<!-- atc_refresh -->
<g id="node14" class="node">
<title>atc_refresh</title><style>.edge>path:hover{stroke-width:8}</style>
<ellipse fill="#c24747" stroke="black" cx="812.27" cy="-166.63" rx="37.58" ry="18"/>
<text xml:space="preserve" text-anchor="middle" x="812.27" y="-163.13" font-family="Helvetica,sans-Serif" font-size="10.00" fill="#ffffff">atc.refresh</text>
</g>
<!-- atc_refresh&#45;&gt;atc_commands -->
<g id="edge16" class="edge">
<title>atc_refresh&#45;&gt;atc_commands</title><style>.edge>path:hover{stroke-width:8}</style>
<path fill="none" stroke="black" d="M812.27,-148.32C812.27,-139.9 812.27,-129.56 812.27,-119.98"/>
<polygon fill="#c24747" stroke="black" points="815.77,-119.99 812.27,-109.99 808.77,-119.99 815.77,-119.99"/>
</g>
<!-- atc_runner&#45;&gt;atc_commands -->
<g id="edge17" class="edge">
<title>atc_runner&#45;&gt;atc_commands</title><style>.edge>path:hover{stroke-width:8}</style>
<path fill="none" stroke="black" d="M998.88,-238.06C970.7,-228.9 928.51,-212.61 897.27,-189.25 876.24,-173.53 876.43,-163.88 859.27,-144 851.32,-134.78 842.48,-124.77 834.64,-115.95"/>
<polygon fill="#cc3333" stroke="black" points="837.48,-113.87 828.21,-108.74 832.26,-118.53 837.48,-113.87"/>
</g>
<!-- atc_watch -->
<g id="node21" class="node">
<title>atc_watch</title><style>.edge>path:hover{stroke-width:8}</style>
<ellipse fill="#b83d3d" stroke="black" cx="1287.27" cy="-166.63" rx="35.33" ry="18"/>
<text xml:space="preserve" text-anchor="middle" x="1287.27" y="-163.13" font-family="Helvetica,sans-Serif" font-size="10.00" fill="#ffffff">atc.watch</text>
</g>
<!-- atc_runner&#45;&gt;atc_watch -->
<g id="edge18" class="edge">
<title>atc_runner&#45;&gt;atc_watch</title><style>.edge>path:hover{stroke-width:8}</style>
<path fill="none" stroke="black" d="M1062.15,-240.11C1104.71,-230.88 1180.79,-212.77 1243.27,-189.25 1246.51,-188.03 1249.83,-186.66 1253.13,-185.2"/>
<polygon fill="#cc3333" stroke="black" points="1254.49,-188.43 1262.06,-181.03 1251.52,-182.09 1254.49,-188.43"/>
</g>
<!-- atc_samples -->
<g id="node16" class="node">
<title>atc_samples</title><style>.edge>path:hover{stroke-width:8}</style>
<ellipse fill="#c24747" stroke="black" cx="582.27" cy="-247.88" rx="41.64" ry="18"/>
<text xml:space="preserve" text-anchor="middle" x="582.27" y="-244.38" font-family="Helvetica,sans-Serif" font-size="10.00" fill="#ffffff">atc.samples</text>
</g>
<!-- atc_samples&#45;&gt;atc_contest -->
<g id="edge19" class="edge">
<title>atc_samples&#45;&gt;atc_contest</title><style>.edge>path:hover{stroke-width:8}</style>
<path fill="none" stroke="black" d="M556.16,-233.62C530.28,-220.47 490.46,-200.24 461.73,-185.64"/>
<polygon fill="#c24747" stroke="black" points="463.54,-182.64 453.04,-181.23 460.37,-188.88 463.54,-182.64"/>
</g>
<!-- atc_stress -->
<g id="node17" class="node">
<title>atc_stress</title><style>.edge>path:hover{stroke-width:8}</style>
<ellipse fill="#c24747" stroke="black" cx="942.27" cy="-166.63" rx="35.78" ry="18"/>
<text xml:space="preserve" text-anchor="middle" x="942.27" y="-163.13" font-family="Helvetica,sans-Serif" font-size="10.00" fill="#ffffff">atc.stress</text>
</g>
<!-- atc_stress&#45;&gt;atc_commands -->
<g id="edge20" class="edge">
<title>atc_stress&#45;&gt;atc_commands</title><style>.edge>path:hover{stroke-width:8}</style>
<path fill="none" stroke="black" d="M919.33,-152.46C899.39,-141.01 870.2,-124.26 847.34,-111.13"/>
<polygon fill="#c24747" stroke="black" points="849.38,-108.27 838.96,-106.32 845.89,-114.34 849.38,-108.27"/>
</g>
<!-- atc_template_commands -->
<g id="node18" class="node">
<title>atc_template_commands</title><style>.edge>path:hover{stroke-width:8}</style>
<ellipse fill="#c24747" stroke="black" cx="1071.27" cy="-166.63" rx="75.48" ry="22.63"/>
<text xml:space="preserve" text-anchor="middle" x="1071.27" y="-169.13" font-family="Helvetica,sans-Serif" font-size="10.00" fill="#ffffff">atc.</text>
<text xml:space="preserve" text-anchor="middle" x="1071.27" y="-157.13" font-family="Helvetica,sans-Serif" font-size="10.00" fill="#ffffff">template_commands</text>
</g>
<!-- atc_template_commands&#45;&gt;atc_commands -->
<g id="edge21" class="edge">
<title>atc_template_commands&#45;&gt;atc_commands</title><style>.edge>path:hover{stroke-width:8}</style>
<path fill="none" stroke="black" d="M1017.92,-150.26C971.64,-136.92 905.24,-117.79 860.52,-104.9"/>
<polygon fill="#c24747" stroke="black" points="861.68,-101.59 851.1,-102.19 859.74,-108.32 861.68,-101.59"/>
</g>
<!-- atc_templates -->
<g id="node19" class="node">
<title>atc_templates</title><style>.edge>path:hover{stroke-width:8}</style>
<ellipse fill="#c24747" stroke="black" cx="209.27" cy="-247.88" rx="45.25" ry="18"/>
<text xml:space="preserve" text-anchor="middle" x="209.27" y="-244.38" font-family="Helvetica,sans-Serif" font-size="10.00" fill="#ffffff">atc.templates</text>
</g>
<!-- atc_templates&#45;&gt;atc_contest -->
<g id="edge22" class="edge">
<title>atc_templates&#45;&gt;atc_contest</title><style>.edge>path:hover{stroke-width:8}</style>
<path fill="none" stroke="black" d="M241.73,-234.97C250.35,-231.81 259.66,-228.4 268.27,-225.25 308.13,-210.68 353.67,-194.08 385.58,-182.45"/>
<polygon fill="#c24747" stroke="black" points="386.65,-185.78 394.85,-179.07 384.25,-179.21 386.65,-185.78"/>
</g>
<!-- atc_visual -->
<g id="node20" class="node">
<title>atc_visual</title><style>.edge>path:hover{stroke-width:8}</style>
<ellipse fill="#c24747" stroke="black" cx="1199.27" cy="-166.63" rx="34.88" ry="18"/>
<text xml:space="preserve" text-anchor="middle" x="1199.27" y="-163.13" font-family="Helvetica,sans-Serif" font-size="10.00" fill="#ffffff">atc.visual</text>
</g>
<!-- atc_visual&#45;&gt;atc_commands -->
<g id="edge23" class="edge">
<title>atc_visual&#45;&gt;atc_commands</title><style>.edge>path:hover{stroke-width:8}</style>
<path fill="none" stroke="black" d="M1176.52,-152.82C1169.85,-149.51 1162.41,-146.25 1155.27,-144 1058.36,-113.48 940.31,-100.17 871.01,-94.64"/>
<polygon fill="#c24747" stroke="black" points="871.65,-91.18 861.41,-93.91 871.11,-98.16 871.65,-91.18"/>
</g>
<!-- atc_watch&#45;&gt;atc_commands -->
<g id="edge24" class="edge">
<title>atc_watch&#45;&gt;atc_commands</title><style>.edge>path:hover{stroke-width:8}</style>
<path fill="none" stroke="black" d="M1264.57,-152.67C1257.89,-149.36 1250.45,-146.14 1243.27,-144 1114.75,-105.7 956.74,-95.04 872.27,-92.1"/>
<polygon fill="#b83d3d" stroke="black" points="872.47,-88.6 862.37,-91.78 872.25,-95.6 872.47,-88.6"/>
</g>
<!-- atc_watch_render -->
<g id="node22" class="node">
<title>atc_watch_render</title><style>.edge>path:hover{stroke-width:8}</style>
<ellipse fill="#c24747" stroke="black" cx="1287.27" cy="-247.88" rx="52.68" ry="22.63"/>
<text xml:space="preserve" text-anchor="middle" x="1287.27" y="-250.38" font-family="Helvetica,sans-Serif" font-size="10.00" fill="#ffffff">atc.</text>
<text xml:space="preserve" text-anchor="middle" x="1287.27" y="-238.38" font-family="Helvetica,sans-Serif" font-size="10.00" fill="#ffffff">watch_render</text>
</g>
<!-- atc_watch_render&#45;&gt;atc_watch -->
<g id="edge25" class="edge">
<title>atc_watch_render&#45;&gt;atc_watch</title><style>.edge>path:hover{stroke-width:8}</style>
<path fill="none" stroke="black" d="M1287.27,-224.81C1287.27,-215.98 1287.27,-205.7 1287.27,-196.31"/>
<polygon fill="#c24747" stroke="black" points="1290.77,-196.58 1287.27,-186.58 1283.77,-196.58 1290.77,-196.58"/>
</g>
<!-- rich -->
<g id="node23" class="node">
<title>rich</title><style>.edge>path:hover{stroke-width:8}</style>
<polygon fill="blue" stroke="black" points="277.27,-630.51 223.27,-630.51 223.27,-594.51 277.27,-594.51 277.27,-630.51"/>
<text xml:space="preserve" text-anchor="middle" x="250.27" y="-609.01" font-family="Helvetica,sans-Serif" font-size="10.00" fill="white">rich</text>
</g>
<!-- rich&#45;&gt;atc_console -->
<g id="edge26" class="edge">
<title>rich&#45;&gt;atc_console</title><style>.edge>path:hover{stroke-width:8}</style>
<path fill="none" stroke="black" d="M277.5,-595.34C297.44,-582.54 324.22,-563.24 343.27,-541.51"/>
</g>
<!-- rich&#45;&gt;atc_doctor -->
<g id="edge27" class="edge">
<title>rich&#45;&gt;atc_doctor</title><style>.edge>path:hover{stroke-width:8}</style>
<path fill="none" stroke="black" d="M222.83,-600.56C199.78,-589.59 168.82,-570.19 157.27,-541.51"/>
</g>
<!-- rich_box -->
<g id="node24" class="node">
<title>rich_box</title><style>.edge>path:hover{stroke-width:8}</style>
<polygon fill="blue" stroke="black" points="339.27,-918.51 285.27,-918.51 285.27,-882.51 339.27,-882.51 339.27,-918.51"/>
<text xml:space="preserve" text-anchor="middle" x="312.27" y="-897.01" font-family="Helvetica,sans-Serif" font-size="10.00" fill="white">rich.box</text>
</g>
<!-- rich_box&#45;&gt;atc_console -->
<g id="edge28" class="edge">
<title>rich_box&#45;&gt;atc_console</title><style>.edge>path:hover{stroke-width:8}</style>
<path fill="none" stroke="black" d="M343.27,-539.51C374.52,-504.97 423.41,-516.04 421.27,-469.51"/>
<path fill="none" stroke="black" d="M421.27,-467.51C420.64,-453.88 421.14,-438.76 421.9,-426.07"/>
<polygon fill="blue" stroke="black" points="425.38,-426.5 422.57,-416.28 418.4,-426.02 425.38,-426.5"/>
<path fill="none" stroke="black" d="M284.84,-882.85C250.26,-859.5 195.27,-813.57 195.27,-757.51 195.27,-757.51 195.27,-757.51 195.27,-683.51 195.27,-643.06 188.35,-625.56 214.27,-594.51 253.99,-546.93 301.68,-587.47 343.27,-541.51"/>
</g>
<!-- rich_panel -->
<g id="node28" class="node">
<title>rich_panel</title><style>.edge>path:hover{stroke-width:8}</style>
<polygon fill="blue" stroke="black" points="453.27,-846.51 395.27,-846.51 395.27,-810.51 453.27,-810.51 453.27,-846.51"/>
<text xml:space="preserve" text-anchor="middle" x="424.27" y="-825.01" font-family="Helvetica,sans-Serif" font-size="10.00" fill="white">rich.panel</text>
</g>
<!-- rich_box&#45;&gt;rich_panel -->
<g id="edge29" class="edge">
<title>rich_box&#45;&gt;rich_panel</title><style>.edge>path:hover{stroke-width:8}</style>
<path fill="none" stroke="black" d="M349.38,-876.32C361.35,-868.83 374.63,-860.53 386.64,-853.03"/>
<polygon fill="blue" stroke="black" points="347.58,-873.32 340.95,-881.58 351.29,-879.25 347.58,-873.32"/>
<polygon fill="blue" stroke="black" points="388.47,-856.01 395.09,-847.75 384.76,-850.08 388.47,-856.01"/>
</g>
<!-- rich_table -->
<g id="node29" class="node">
<title>rich_table</title><style>.edge>path:hover{stroke-width:8}</style>
<polygon fill="blue" stroke="black" points="448.15,-558.51 392.4,-558.51 392.4,-522.51 448.15,-522.51 448.15,-558.51"/>
<text xml:space="preserve" text-anchor="middle" x="420.27" y="-537.01" font-family="Helvetica,sans-Serif" font-size="10.00" fill="white">rich.table</text>
</g>
<!-- rich_box&#45;&gt;rich_table -->
<g id="edge30" class="edge">
<title>rich_box&#45;&gt;rich_table</title><style>.edge>path:hover{stroke-width:8}</style>
<path fill="none" stroke="black" d="M306.37,-870.76C298.27,-826.46 286.22,-739.02 300.27,-666.51 306.83,-632.64 306.7,-620.6 329.27,-594.51 343.47,-578.1 364.07,-565.51 382.07,-556.73"/>
<polygon fill="blue" stroke="black" points="302.93,-871.41 308.24,-880.58 309.81,-870.1 302.93,-871.41"/>
<polygon fill="blue" stroke="black" points="383.33,-560.01 390.94,-552.63 380.39,-553.65 383.33,-560.01"/>
</g>
<!-- rich_columns -->
<g id="node25" class="node">
<title>rich_columns</title><style>.edge>path:hover{stroke-width:8}</style>
<polygon fill="blue" stroke="black" points="348.02,-990.51 276.52,-990.51 276.52,-954.51 348.02,-954.51 348.02,-990.51"/>
<text xml:space="preserve" text-anchor="middle" x="312.27" y="-969.01" font-family="Helvetica,sans-Serif" font-size="10.00" fill="white">rich.columns</text>
</g>
<!-- rich_columns&#45;&gt;atc_doctor -->
<g id="edge31" class="edge">
<title>rich_columns&#45;&gt;atc_doctor</title><style>.edge>path:hover{stroke-width:8}</style>
<path fill="none" stroke="black" d="M157.27,-539.51C151.95,-526.31 148.59,-510.86 146.5,-497.84"/>
<polygon fill="blue" stroke="black" points="150,-497.61 145.13,-488.2 143.07,-498.6 150,-497.61"/>
<path fill="none" stroke="black" d="M276.32,-957.39C230.53,-936.77 157.27,-893.74 157.27,-829.51 157.27,-829.51 157.27,-829.51 157.27,-683.51 157.27,-620.4 180.84,-600.05 157.27,-541.51"/>
</g>
<!-- rich_columns&#45;&gt;rich_box -->
<g id="edge32" class="edge">
<title>rich_columns&#45;&gt;rich_box</title><style>.edge>path:hover{stroke-width:8}</style>
<path fill="none" stroke="black" d="M312.27,-954.21C312.27,-946.92 312.27,-938.24 312.27,-930.05"/>
<polygon fill="blue" stroke="black" points="315.77,-930.13 312.27,-920.13 308.77,-930.13 315.77,-930.13"/>
</g>
<!-- rich_console -->
<g id="node26" class="node">
<title>rich_console</title><style>.edge>path:hover{stroke-width:8}</style>
<polygon fill="blue" stroke="black" points="377.52,-702.51 309.02,-702.51 309.02,-666.51 377.52,-666.51 377.52,-702.51"/>
<text xml:space="preserve" text-anchor="middle" x="343.27" y="-681.01" font-family="Helvetica,sans-Serif" font-size="10.00" fill="white">rich.console</text>
</g>
<!-- rich_console&#45;&gt;atc_console -->
<g id="edge33" class="edge">
<title>rich_console&#45;&gt;atc_console</title><style>.edge>path:hover{stroke-width:8}</style>
<path fill="none" stroke="black" d="M340.96,-666.25C339.59,-651.91 338.87,-631.07 343.27,-613.51"/>
<path fill="none" stroke="black" d="M343.27,-611.51C350.83,-581.33 322.76,-564.91 343.27,-541.51"/>
</g>
<!-- rich_console&#45;&gt;rich -->
<g id="edge34" class="edge">
<title>rich_console&#45;&gt;rich</title><style>.edge>path:hover{stroke-width:8}</style>
<path fill="none" stroke="black" d="M320.28,-666.21C308.88,-657.62 294.92,-647.12 282.47,-637.75"/>
<polygon fill="blue" stroke="black" points="284.62,-634.98 274.53,-631.77 280.41,-640.58 284.62,-634.98"/>
</g>
<!-- rich_console&#45;&gt;rich_box -->
<g id="edge35" class="edge">
<title>rich_console&#45;&gt;rich_box</title><style>.edge>path:hover{stroke-width:8}</style>
<path fill="none" stroke="black" d="M349.01,-702.83C352.83,-714.27 358.11,-729.84 363.42,-744.8"/>
<polygon fill="blue" stroke="black" points="360.08,-745.86 366.76,-754.09 366.67,-743.49 360.08,-745.86"/>
<path fill="none" stroke="black" d="M367.27,-829.51C363.37,-850.64 347.49,-869.46 333.79,-882.25"/>
<path fill="none" stroke="black" d="M367.27,-757.51C377.92,-786.74 372.91,-796.91 367.27,-827.51"/>
</g>
<!-- rich_console&#45;&gt;rich_columns -->
<g id="edge36" class="edge">
<title>rich_console&#45;&gt;rich_columns</title><style>.edge>path:hover{stroke-width:8}</style>
<path fill="none" stroke="black" d="M367.27,-901.51C351.87,-918.63 335.77,-939.54 324.99,-954.02"/>
<path fill="none" stroke="black" d="M367.27,-829.51C361.63,-860.1 388.07,-876.38 367.27,-899.51"/>
</g>
<!-- rich_live -->
<g id="node27" class="node">
<title>rich_live</title><style>.edge>path:hover{stroke-width:8}</style>
<polygon fill="blue" stroke="black" points="450.27,-774.51 396.27,-774.51 396.27,-738.51 450.27,-738.51 450.27,-774.51"/>
<text xml:space="preserve" text-anchor="middle" x="423.27" y="-753.01" font-family="Helvetica,sans-Serif" font-size="10.00" fill="white">rich.live</text>
</g>
<!-- rich_console&#45;&gt;rich_panel -->
<g id="edge38" class="edge">
<title>rich_console&#45;&gt;rich_panel</title><style>.edge>path:hover{stroke-width:8}</style>
<path fill="none" stroke="black" d="M367.27,-757.51C374.78,-778.13 391.12,-797.13 404.39,-810.12"/>
</g>
<!-- rich_console&#45;&gt;rich_table -->
<g id="edge39" class="edge">
<title>rich_console&#45;&gt;rich_table</title><style>.edge>path:hover{stroke-width:8}</style>
<path fill="none" stroke="black" d="M343.27,-611.51C348.57,-590.37 365.98,-573.6 382.9,-561.79"/>
<polygon fill="blue" stroke="black" points="384.45,-564.96 390.91,-556.56 380.62,-559.1 384.45,-564.96"/>
</g>
<!-- rich_text -->
<g id="node30" class="node">
<title>rich_text</title><style>.edge>path:hover{stroke-width:8}</style>
<polygon fill="blue" stroke="black" points="501.27,-630.51 447.27,-630.51 447.27,-594.51 501.27,-594.51 501.27,-630.51"/>
<text xml:space="preserve" text-anchor="middle" x="474.27" y="-609.01" font-family="Helvetica,sans-Serif" font-size="10.00" fill="white">rich.text</text>
</g>
<!-- rich_console&#45;&gt;rich_text -->
<g id="edge40" class="edge">
<title>rich_console&#45;&gt;rich_text</title><style>.edge>path:hover{stroke-width:8}</style>
<path fill="none" stroke="black" d="M386.09,-660.63C402.48,-651.87 421.02,-641.96 436.86,-633.5"/>
<polygon fill="blue" stroke="black" points="384.49,-657.51 377.32,-665.31 387.79,-663.69 384.49,-657.51"/>
<polygon fill="blue" stroke="black" points="438.32,-636.69 445.49,-628.89 435.02,-630.51 438.32,-636.69"/>
</g>
<!-- rich_live&#45;&gt;atc_console -->
<g id="edge41" class="edge">
<title>rich_live&#45;&gt;atc_console</title><style>.edge>path:hover{stroke-width:8}</style>
<path fill="none" stroke="black" d="M416.4,-738.36C396.41,-688.27 339.82,-545.44 343.27,-541.51"/>
</g>
<!-- rich_live&#45;&gt;rich_console -->
<g id="edge42" class="edge">
<title>rich_live&#45;&gt;rich_console</title><style>.edge>path:hover{stroke-width:8}</style>
<path fill="none" stroke="black" d="M394.99,-730.77C387.42,-724.14 379.22,-716.97 371.64,-710.33"/>
<polygon fill="blue" stroke="black" points="392.53,-733.26 402.36,-737.21 397.14,-727.99 392.53,-733.26"/>
<polygon fill="blue" stroke="black" points="374.07,-707.8 364.23,-703.85 369.46,-713.07 374.07,-707.8"/>
</g>
<!-- rich_panel&#45;&gt;atc_console -->
<g id="edge43" class="edge">
<title>rich_panel&#45;&gt;atc_console</title><style>.edge>path:hover{stroke-width:8}</style>
<path fill="none" stroke="black" d="M453.65,-812.84C468.55,-803.84 485.51,-790.9 495.27,-774.51 548.83,-684.6 561.09,-641.21 529.27,-541.51"/>
</g>
<!-- rich_panel&#45;&gt;rich_live -->
<g id="edge45" class="edge">
<title>rich_panel&#45;&gt;rich_live</title><style>.edge>path:hover{stroke-width:8}</style>
<path fill="none" stroke="black" d="M424.02,-810.21C423.92,-802.92 423.8,-794.24 423.68,-786.05"/>
<polygon fill="blue" stroke="black" points="427.18,-786.08 423.54,-776.13 420.18,-786.18 427.18,-786.08"/>
</g>
<!-- rich_table&#45;&gt;atc_console -->
<g id="edge46" class="edge">
<title>rich_table&#45;&gt;atc_console</title><style>.edge>path:hover{stroke-width:8}</style>
<path fill="none" stroke="black" d="M421.09,-522.24C421.63,-508.07 422.1,-487.48 421.27,-469.51"/>
</g>
<!-- rich_table&#45;&gt;rich_columns -->
<g id="edge48" class="edge">
<title>rich_table&#45;&gt;rich_columns</title><style>.edge>path:hover{stroke-width:8}</style>
<path fill="none" stroke="black" d="M567.27,-685.51C596.66,-760.46 542.62,-791.04 484.27,-846.51 442.89,-885.84 405.44,-857.06 367.27,-899.51"/>
<path fill="none" stroke="black" d="M448.52,-553.85C467.5,-563.1 492.25,-577.15 510.27,-594.51 541.19,-624.3 552.11,-636.35 563.9,-672.61"/>
<polygon fill="blue" stroke="black" points="560.53,-673.54 566.82,-682.06 567.22,-671.48 560.53,-673.54"/>
</g>
<!-- rich_table&#45;&gt;rich_live -->
<g id="edge49" class="edge">
<title>rich_table&#45;&gt;rich_live</title><style>.edge>path:hover{stroke-width:8}</style>
<path fill="none" stroke="black" d="M443.27,-685.51C439.43,-703.69 433.4,-724.07 428.97,-738.13"/>
<path fill="none" stroke="black" d="M423.74,-558.99C429.44,-588.16 440.43,-646.11 442.93,-672.04"/>
<polygon fill="blue" stroke="black" points="439.43,-672.1 443.23,-682 446.43,-671.9 439.43,-672.1"/>
</g>
<!-- rich_text&#45;&gt;atc_console -->
<g id="edge50" class="edge">
<title>rich_text&#45;&gt;atc_console</title><style>.edge>path:hover{stroke-width:8}</style>
<path fill="none" stroke="black" d="M501.61,-594.39C518.54,-581.4 535.9,-562.27 529.27,-541.51"/>
<path fill="none" stroke="black" d="M529.27,-539.51C511.88,-485.02 423.9,-526.65 421.27,-469.51"/>
</g>
<!-- rich_text&#45;&gt;rich_box -->
<g id="edge51" class="edge">
<title>rich_text&#45;&gt;rich_box</title><style>.edge>path:hover{stroke-width:8}</style>
<path fill="none" stroke="black" d="M481.27,-757.51C472.94,-797.09 489.28,-816.4 462.27,-846.51 428.21,-884.49 401.09,-864.73 353.27,-882.51 348.79,-884.17 344.08,-886.03 339.51,-887.89"/>
</g>
<!-- rich_text&#45;&gt;rich_columns -->
<g id="edge52" class="edge">
<title>rich_text&#45;&gt;rich_columns</title><style>.edge>path:hover{stroke-width:8}</style>
<path fill="none" stroke="black" d="M501.67,-623.37C522.85,-632.62 550.59,-648.71 563.05,-673"/>
<polygon fill="blue" stroke="black" points="559.73,-674.13 566.71,-682.11 566.23,-671.52 559.73,-674.13"/>
</g>
<!-- rich_text&#45;&gt;rich_live -->
<g id="edge54" class="edge">
<title>rich_text&#45;&gt;rich_live</title><style>.edge>path:hover{stroke-width:8}</style>
<path fill="none" stroke="black" d="M463.57,-630.85C457.38,-641.88 449.99,-656.94 445.75,-672.31"/>
<polygon fill="blue" stroke="black" points="442.34,-671.51 443.6,-682.03 449.17,-673.02 442.34,-671.51"/>
</g>
<!-- rich_text&#45;&gt;rich_panel -->
<g id="edge55" class="edge">
<title>rich_text&#45;&gt;rich_panel</title><style>.edge>path:hover{stroke-width:8}</style>
<path fill="none" stroke="black" d="M477.72,-630.74C482.12,-655.38 488.54,-702.34 483.08,-744.16"/>
<polygon fill="blue" stroke="black" points="479.63,-743.59 481.51,-754.02 486.54,-744.69 479.63,-743.59"/>
<path fill="none" stroke="black" d="M481.27,-757.51C477.22,-778.75 460.97,-797.44 446.85,-810.14"/>
</g>
<!-- rich_text&#45;&gt;rich_table -->
<g id="edge56" class="edge">
<title>rich_text&#45;&gt;rich_table</title><style>.edge>path:hover{stroke-width:8}</style>
<path fill="none" stroke="black" d="M460.92,-594.21C454.71,-586.15 447.19,-576.4 440.31,-567.49"/>
<polygon fill="blue" stroke="black" points="443.27,-565.59 434.39,-559.81 437.73,-569.87 443.27,-565.59"/>
</g>
</g>
</svg>
